<svg xmlns="http://www.w3.org/2000/svg" viewBox="0 0 50 50"><defs><style>.cls-1{fill:#fff;}</style></defs><g id="Слой_2" data-name="Слой 2"><g id="Слой_1-2" data-name="Слой 1"><path class="cls-1" d="M37.33,3A9.68,9.68,0,0,1,47,12.67V37.33A9.68,9.68,0,0,1,37.33,47H12.67A9.68,9.68,0,0,1,3,37.33V12.67A9.68,9.68,0,0,1,12.67,3H37.33m0-3H12.67A12.67,12.67,0,0,0,0,12.67V37.33A12.67,12.67,0,0,0,12.67,50H37.33A12.67,12.67,0,0,0,50,37.33V12.67A12.67,12.67,0,0,0,37.33,0Z"/><path class="cls-1" d="M18,13a10.92,10.92,0,0,1,2.71.3,5.49,5.49,0,0,1,2.1,1,4.42,4.42,0,0,1,1.35,1.8,7,7,0,0,1,.48,2.77,5.68,5.68,0,0,1-.72,3,5.27,5.27,0,0,1-2.12,1.94,5,5,0,0,1,2.85,2.19,7.12,7.12,0,0,1,.95,3.78A7.28,7.28,0,0,1,25,32.81,5.91,5.91,0,0,1,23.35,35,7.15,7.15,0,0,1,21,36.17a9.45,9.45,0,0,1-2.71.4H8.22V13Zm-.59,9.51a3,3,0,0,0,2-.66,2.64,2.64,0,0,0,.77-2.14A3.15,3.15,0,0,0,20,18.35a2.17,2.17,0,0,0-.7-.82,2.83,2.83,0,0,0-1-.41A5.08,5.08,0,0,0,17.07,17H12.79v5.51Zm.25,10A5.43,5.43,0,0,0,19,32.4,2.82,2.82,0,0,0,20,31.9a2.45,2.45,0,0,0,.75-.94,3.57,3.57,0,0,0,.27-1.52,3.27,3.27,0,0,0-.9-2.6,3.48,3.48,0,0,0-2.39-.78h-5v6.49Z"/><path class="cls-1" d="M32.14,32.47a3.44,3.44,0,0,0,2.67,1A3.3,3.3,0,0,0,37,32.78a2.94,2.94,0,0,0,1.11-1.51h3.64A7.92,7.92,0,0,1,39,35.67,7.19,7.19,0,0,1,34.67,37a7.58,7.58,0,0,1-3.21-.65A6.88,6.88,0,0,1,29,34.52a8.77,8.77,0,0,1-1.52-2.84A11.68,11.68,0,0,1,27,28a11.35,11.35,0,0,1,.55-3.56,8.75,8.75,0,0,1,1.58-2.87,7.29,7.29,0,0,1,2.44-1.9,6.9,6.9,0,0,1,3.14-.7,6.41,6.41,0,0,1,3.34.85,7,7,0,0,1,2.35,2.25,10.18,10.18,0,0,1,1.32,3.24,13.59,13.59,0,0,1,.28,3.8H31.11A5.18,5.18,0,0,0,32.14,32.47Zm4.74-9a2.9,2.9,0,0,0-2.33-1,3.27,3.27,0,0,0-1.65.38,3.41,3.41,0,0,0-1,.94,3.64,3.64,0,0,0-.56,1.2,5.74,5.74,0,0,0-.18,1.12h6.72A4.76,4.76,0,0,0,36.88,23.51Z"/><rect class="cls-1" x="30.27" y="14.58" width="8.42" height="2.32"/></g></g></svg>