<svg xmlns="http://www.w3.org/2000/svg" viewBox="0 0 50 50"><defs><style>.cls-1{fill:#fff;}</style></defs><g id="Слой_2" data-name="Слой 2"><g id="Слой_1-2" data-name="Слой 1"><path class="cls-1" d="M37.33,3A9.68,9.68,0,0,1,47,12.67V37.33A9.68,9.68,0,0,1,37.33,47H12.67A9.68,9.68,0,0,1,3,37.33V12.67A9.68,9.68,0,0,1,12.67,3H37.33m0-3H12.67A12.67,12.67,0,0,0,0,12.67V37.33A12.67,12.67,0,0,0,12.67,50H37.33A12.67,12.67,0,0,0,50,37.33V12.67A12.67,12.67,0,0,0,37.33,0Z"/><path class="cls-1" d="M27.71,41.4l-.34,0h-6.2c-.29,0-.37-.08-.37-.39q0-7.57,0-15.17v-.44H17.48V20h3c.23,0,.3-.07.3-.3q0-2.13,0-4.26a6.34,6.34,0,0,1,.59-2.85A5.27,5.27,0,0,1,24.26,10a8.64,8.64,0,0,1,3.16-.59c1.75,0,3.51,0,5.26,0,.16,0,.3,0,.3.23,0,1.75,0,3.5,0,5.24a.9.9,0,0,1,0,.12h-3.6a1.56,1.56,0,0,0-1.45.85,1.21,1.21,0,0,0-.16.59c0,1.08,0,2.16,0,3.24,0,.26.07.33.31.33,1.51,0,3,0,4.53,0H33c-.21,1.82-.42,3.6-.63,5.39H27.71Z"/></g></g></svg>