<svg xmlns="http://www.w3.org/2000/svg" viewBox="0 0 50 50"><defs><style>.cls-1{fill:#fff;}</style></defs><g id="Слой_2" data-name="Слой 2"><g id="Слой_1-2" data-name="Слой 1"><path class="cls-1" d="M37.33,3A9.68,9.68,0,0,1,47,12.67V37.33A9.68,9.68,0,0,1,37.33,47H12.67A9.68,9.68,0,0,1,3,37.33V12.67A9.68,9.68,0,0,1,12.67,3H37.33m0-3H12.67A12.67,12.67,0,0,0,0,12.67V37.33A12.67,12.67,0,0,0,12.67,50H37.33A12.67,12.67,0,0,0,50,37.33V12.67A12.67,12.67,0,0,0,37.33,0Z"/><path class="cls-1" d="M42,25c0,2.38,0,4.78,0,7.16a9.5,9.5,0,0,1-6,9,10.9,10.9,0,0,1-4.28.89c-4.63,0-9.26.07-13.89,0a10.15,10.15,0,0,1-8.42-4.39,8.53,8.53,0,0,1-1.59-5.08V17.78c0-4,2-6.82,5.44-8.64A10.5,10.5,0,0,1,18.18,8c4.49,0,9,0,13.48,0a10.37,10.37,0,0,1,8.55,4.16A8.53,8.53,0,0,1,42,17.51ZM10.41,25v7.54a5.94,5.94,0,0,0,.84,3.14A7.63,7.63,0,0,0,18,39.47c4.62.07,9.24,0,13.86,0a7.46,7.46,0,0,0,3.26-.72,6.84,6.84,0,0,0,4.34-6.63c0-4.87,0-9.74,0-14.61a6.16,6.16,0,0,0-1.21-3.75,7.73,7.73,0,0,0-6.39-3.21c-4.61-.05-9.22,0-13.83,0a8.19,8.19,0,0,0-2.85.54,7,7,0,0,0-4.78,6.82C10.47,20.29,10.41,22.65,10.41,25Z"/><path class="cls-1" d="M25,32.29a7.89,7.89,0,1,1,8-7.9A8,8,0,0,1,25,32.29Zm0-2.54a5.36,5.36,0,1,0-5.48-5.36A5.43,5.43,0,0,0,25,29.75Z"/><path class="cls-1" d="M33.9,14.11a1.75,1.75,0,1,1-1.68,1.77A1.73,1.73,0,0,1,33.9,14.11Z"/></g></g></svg>