<svg xmlns="http://www.w3.org/2000/svg" viewBox="0 0 50 50"><defs><style>.cls-1{fill:#fff;}</style></defs><g id="Слой_2" data-name="Слой 2"><g id="Слой_1-2" data-name="Слой 1"><path class="cls-1" d="M37.33,3A9.68,9.68,0,0,1,47,12.67V37.33A9.68,9.68,0,0,1,37.33,47H12.67A9.68,9.68,0,0,1,3,37.33V12.67A9.68,9.68,0,0,1,12.67,3H37.33m0-3H12.67A12.67,12.67,0,0,0,0,12.67V37.33A12.67,12.67,0,0,0,12.67,50H37.33A12.67,12.67,0,0,0,50,37.33V12.67A12.67,12.67,0,0,0,37.33,0Z"/><path class="cls-1" d="M36.37,8.38,7.69,22.1c-1.16.64-1.55,1.92-.28,2.61l7.36,2.9L32.56,14c1-.86,2-.63,1.11.31L18.39,31.45l-.48,7.26c.44,1.12,1.26,1.12,1.78.57l4.22-5L31.15,41c1.69,1.23,2.6.44,3-1.83l4.75-27.88C39.36,8.54,38.52,7.31,36.37,8.38Z"/></g></g></svg>