<svg xmlns="http://www.w3.org/2000/svg" viewBox="0 0 50 50"><defs><style>.cls-1{fill:#fff;}</style></defs><g id="Слой_2" data-name="Слой 2"><g id="Слой_1-2" data-name="Слой 1"><path class="cls-1" d="M37.33,3A9.68,9.68,0,0,1,47,12.67V37.33A9.68,9.68,0,0,1,37.33,47H12.67A9.68,9.68,0,0,1,3,37.33V12.67A9.68,9.68,0,0,1,12.67,3H37.33m0-3H12.67A12.67,12.67,0,0,0,0,12.67V37.33A12.67,12.67,0,0,0,12.67,50H37.33A12.67,12.67,0,0,0,50,37.33V12.67A12.67,12.67,0,0,0,37.33,0Z"/><path class="cls-1" d="M24.5,34.9h2.05a1.66,1.66,0,0,0,.93-.41,1.56,1.56,0,0,0,.3-.92s-.05-2.82,1.23-3.24,2.86,2.73,4.57,3.93a3.18,3.18,0,0,0,2.28.72l4.57-.06s2.39-.16,1.26-2.09c-.08-.15-.64-1.42-3.37-4s-2.48-2.28,1-7c2.09-2.87,2.95-4.63,2.67-5.38s-1.79-.52-1.79-.52l-5.13,0a1.21,1.21,0,0,0-.66.13,1.48,1.48,0,0,0-.45.57A30,30,0,0,1,32,20.76c-2.31,4-3.22,4.21-3.59,3.95-.86-.57-.64-2.31-.64-3.56,0-3.86.58-5.49-1.11-5.9A8.93,8.93,0,0,0,24.29,15a10.73,10.73,0,0,0-4.26.46c-.58.3-1,.95-.77,1a2.22,2.22,0,0,1,1.51.78,5.09,5.09,0,0,1,.51,2.4s.3,4.55-.7,5.12c-.7.38-1.64-.41-3.69-4a32.38,32.38,0,0,1-1.84-3.91,1.69,1.69,0,0,0-.42-.59,2.32,2.32,0,0,0-.8-.33L9,15.93s-.73,0-1,.35,0,.9,0,.9S11.77,26.38,16.1,31a11.58,11.58,0,0,0,8.47,4Z"/></g></g></svg>