<svg xmlns="http://www.w3.org/2000/svg" viewBox="0 0 356.41 78.2"><defs><style>.cls-1{fill:#fff;}</style></defs><g id="Слой_2" data-name="Слой 2"><g id="Слой_1-2" data-name="Слой 1"><path class="cls-1" d="M9.73,16c0,.17.11.26.34.26s.87-.15,2.15-.44a17.33,17.33,0,0,1,3.47-.48,25.69,25.69,0,0,0-3,1.34q-1.24.68-2.58,1.5c-.89.55-1.53.91-1.91,1.1a2.5,2.5,0,0,1-1,.27c-.89,0-1.34-.8-1.34-2.41,0-4.15.75-7.07,2.27-8.76a17.46,17.46,0,0,1,3-2.43A38.27,38.27,0,0,1,15.7,3.31a36.43,36.43,0,0,1,5.66-2.17,21.4,21.4,0,0,1,6.1-.92,13.07,13.07,0,0,1,5.67,1.24A12.07,12.07,0,0,1,37.45,5a16,16,0,0,1,2.68,5.51,26.37,26.37,0,0,1,.94,7.33,29.51,29.51,0,0,1-2.57,12,35.12,35.12,0,0,1-6.86,10.27A33.6,33.6,0,0,1,22,47.13a24.19,24.19,0,0,1-10.61,2.6,3.46,3.46,0,0,1-1.54-.29A1.74,1.74,0,0,1,9,48.29a10.31,10.31,0,0,1-.23-2.55A19.87,19.87,0,0,1,9,42.33a24.86,24.86,0,0,1,.8-3Q13.61,27.62,23,9.89A22.85,22.85,0,0,0,18.85,11a45.51,45.51,0,0,0-4.3,1.82,32.93,32.93,0,0,0-3.43,1.9C10.19,15.33,9.73,15.77,9.73,16ZM23.79,9.67c0,.05,0,.32.1.82a9.73,9.73,0,0,1,.11,1.3,6.9,6.9,0,0,1-.62,2.36c-.41,1-1.23,2.82-2.44,5.41s-2.25,4.86-3.11,6.81-1.89,4.47-3.07,7.54c-.36,1-.62,1.64-.76,2s-.37.9-.67,1.68a19.19,19.19,0,0,0-.68,2,5.79,5.79,0,0,0-.21,1.28,1.39,1.39,0,0,0,.75,1.34,5,5,0,0,0,2.16.38,18.41,18.41,0,0,0,7.59-1.81,28.58,28.58,0,0,0,7.54-5,26.38,26.38,0,0,0,5.63-7.28A18.19,18.19,0,0,0,38.22,20q0-5.06-2.66-7.78T27.8,9.45A33.67,33.67,0,0,0,23.79,9.67Z" transform="translate(-1.78)"/><path class="cls-1" d="M45.91,39.27v.81a5.48,5.48,0,0,0,.67,3,2,2,0,0,0,1.75,1.06,4.54,4.54,0,0,0,2.35-.74,12.32,12.32,0,0,0,2.42-2q1.2-1.22,2.94-3.27v2a36.26,36.26,0,0,1-4.91,6.69,6.6,6.6,0,0,1-4.65,2.33,3.63,3.63,0,0,1-3.26-2.22A12.82,12.82,0,0,1,42,40.81a16,16,0,0,1,1.13-6.11,22.76,22.76,0,0,1,3.7-5.8,15,15,0,0,1,3.5-3.15,6.17,6.17,0,0,1,3.1-1.06,2.22,2.22,0,0,1,1.72.69,3,3,0,0,1,.64,2.08,8.48,8.48,0,0,1-1.09,4,15.22,15.22,0,0,1-3.32,4A32.22,32.22,0,0,1,45.91,39.27Zm.23-2.09a12.92,12.92,0,0,0,3.56-2.79,13.71,13.71,0,0,0,2.19-3.19,6.16,6.16,0,0,0,.7-2.24c0-.49-.16-.73-.49-.73a2.86,2.86,0,0,0-1.35.73,12.91,12.91,0,0,0-1.9,1.93,14.49,14.49,0,0,0-1.72,2.8A11.09,11.09,0,0,0,46.14,37.18Z" transform="translate(-1.78)"/><path class="cls-1" d="M55.94,39v-.78q6-8.73,8.22-12.23c.34-2.63,1.15-4,2.45-4a1.85,1.85,0,0,1,1,.39l.14.61a5,5,0,0,0-.09,1.09A14,14,0,0,0,68,26.41c.23,1.11.4,2,.52,2.78a15,15,0,0,1,.19,2.54,11.83,11.83,0,0,1-.7,4.06,14.2,14.2,0,0,1-2,3.72,24.44,24.44,0,0,1-3.4,3.65,6.08,6.08,0,0,0,1.32.19,4.06,4.06,0,0,0,2-.66,12.91,12.91,0,0,0,2.24-1.76q1.14-1.11,2.67-2.88V40.2a39.49,39.49,0,0,1-5.3,6.09q-2.32,2.07-4,2.07-2.18,0-4-2.57a7.78,7.78,0,0,1-1.35-2.95A21.4,21.4,0,0,1,55.94,39Zm8.63-4.92-.41-4.68Q62.72,31.66,58,38.05a3.53,3.53,0,0,1,1.89,1.13,18.58,18.58,0,0,1,1.44,2.73,6.13,6.13,0,0,0,2.41-2.46,8.92,8.92,0,0,0,.85-4.26c0-.21,0-.4,0-.57S64.59,34.27,64.57,34.1Z" transform="translate(-1.78)"/><path class="cls-1" d="M81.88,38.12v2.34a30.83,30.83,0,0,1-4.19,6c-1.3,1.36-2.4,2-3.31,2q-1.89,0-2.82-2.76a18.8,18.8,0,0,1-.93-6,14.2,14.2,0,0,1,.19-2.39,11.43,11.43,0,0,1,.44-1.88c.17-.49.48-1.26.95-2.31q3.29-7.09,6-7.09,1.41,0,1.41,1.5a9.45,9.45,0,0,1-.91,3.21,14.7,14.7,0,0,1-1.63,3.12q-2,2.7-2.63,3.76a4.69,4.69,0,0,0-.61,2.41A3,3,0,0,0,74.47,42a2,2,0,0,0,1.62.77,3.86,3.86,0,0,0,2.4-1.11A32.63,32.63,0,0,0,81.88,38.12ZM80.3,23.76a1.47,1.47,0,0,1-1.1-.61,2.31,2.31,0,0,1-.52-1.54,6.52,6.52,0,0,1,1-3.14q1-1.74,2-1.74a1.39,1.39,0,0,1,1.15.6A2.7,2.7,0,0,1,83.29,19a6.3,6.3,0,0,1-1,3.05C81.71,23.21,81,23.76,80.3,23.76Z" transform="translate(-1.78)"/><path class="cls-1" d="M100.06,40.27,92.38,49a66.11,66.11,0,0,1-5.9,11.61q-2.66,3.84-4,3.84c-.46,0-.69-.4-.69-1.19a14.7,14.7,0,0,1,1.69-5.91,25.06,25.06,0,0,1,1.54-2.76c.58-.9,1.12-1.67,1.64-2.33s1.2-1.46,2-2.44,1.42-1.64,1.73-2q2.31-6.54,3.33-10Q91.64,41,90,43.09a20.85,20.85,0,0,1-3,3.17,4.11,4.11,0,0,1-2.44,1.1c-.79,0-1.52-.87-2.18-2.61a15.12,15.12,0,0,1-1-5.38,9.45,9.45,0,0,1,.42-2.7,15.25,15.25,0,0,1,1.35-3,23,23,0,0,1,2.32-3.29,27.1,27.1,0,0,1,3.31-3.29Q92.43,24,94.41,24a1.32,1.32,0,0,1,1.48,1.5q0,2.1-3.21,4.08a20.12,20.12,0,0,0-3.9,3.15,18.25,18.25,0,0,0-3.12,4.16,8.41,8.41,0,0,0-1.19,4,2.72,2.72,0,0,0,.3,1.38.88.88,0,0,0,.79.52,2.89,2.89,0,0,0,1.85-1,41.93,41.93,0,0,0,3.07-3.63A36.42,36.42,0,0,0,93,34.21q1.53-2.64,2.54-4c.67-.93,1.28-1.4,1.82-1.4a.92.92,0,0,1,.75.4,2,2,0,0,1,.29,1.18,16.48,16.48,0,0,1-.85,4.28q-.84,2.82-3,9.2l5.6-5.65Z" transform="translate(-1.78)"/><path class="cls-1" d="M115.49,32.3q-4.08,6.3-4.07,8.77,0,1.38.81,1.38a3,3,0,0,0,1.74-1q1.08-1,3.37-3.48V40.2q-3.28,4.5-5,6.49c-1.18,1.33-2.13,2-2.87,2-1.27,0-1.9-1.16-1.9-3.47a9.13,9.13,0,0,1,.23-2,17.91,17.91,0,0,1,.64-2.07c.27-.72.68-1.75,1.24-3.08s1.19-2.86,1.92-4.55a16.36,16.36,0,0,0-3.31,3.69,33.12,33.12,0,0,0-2.2,3.3c-.6,1-1.25,2.19-1.93,3.46a26.36,26.36,0,0,1-1.51,2.57,1.26,1.26,0,0,1-1,.66c-.49,0-.94-.72-1.36-2.15a17.87,17.87,0,0,1-.62-5,10.48,10.48,0,0,1,.28-2.76,23,23,0,0,1,1.15-2.83,32.52,32.52,0,0,1,2.75-5q1.16-1.59,2.22-1.59a1.89,1.89,0,0,1,1.19.35,1.32,1.32,0,0,1,.46,1.1,1.87,1.87,0,0,1-.14.67,4.24,4.24,0,0,1-.32.64c-.11.19-.35.57-.72,1.13q-3.66,5.61-3.66,7.29c0,.62.15.93.44.93s.54-.42,1.08-1.24,1.21-1.9,2-3.24a49,49,0,0,1,3-4.19,35.72,35.72,0,0,1,3.92-4.21,3.4,3.4,0,0,1,2-1.19c.24,0,.49.47.72,1.42a11.48,11.48,0,0,1,.36,2.85A4.57,4.57,0,0,1,115.49,32.3Z" transform="translate(-1.78)"/><path class="cls-1" d="M120.9,39.27v.81a5.48,5.48,0,0,0,.67,3,2,2,0,0,0,1.76,1.06,4.54,4.54,0,0,0,2.35-.74,12.62,12.62,0,0,0,2.42-2q1.2-1.22,2.93-3.27v2a35.82,35.82,0,0,1-4.9,6.69,6.63,6.63,0,0,1-4.65,2.33,3.63,3.63,0,0,1-3.26-2.22A12.81,12.81,0,0,1,117,40.81a15.8,15.8,0,0,1,1.14-6.11,22.49,22.49,0,0,1,3.7-5.8,15,15,0,0,1,3.49-3.15,6.2,6.2,0,0,1,3.1-1.06,2.24,2.24,0,0,1,1.73.69,3,3,0,0,1,.63,2.08,8.37,8.37,0,0,1-1.09,4,15,15,0,0,1-3.32,4A31.44,31.44,0,0,1,120.9,39.27Zm.23-2.09a12.63,12.63,0,0,0,3.56-2.79,13.41,13.41,0,0,0,2.19-3.19,6.24,6.24,0,0,0,.71-2.24c0-.49-.17-.73-.49-.73a2.78,2.78,0,0,0-1.35.73,12.45,12.45,0,0,0-1.9,1.93,14,14,0,0,0-1.72,2.8A11.37,11.37,0,0,0,121.13,37.18Z" transform="translate(-1.78)"/><path class="cls-1" d="M130.8,40.59V38.5a33.57,33.57,0,0,0,1.9-3.5,2.48,2.48,0,0,1-1.08-.87,2.87,2.87,0,0,1-.33-1.54,8.42,8.42,0,0,1,.69-2.92,17.55,17.55,0,0,1,1.71-3.31,6.13,6.13,0,0,1,1.85-2,1.12,1.12,0,0,1,.63-.22c.31,0,.46.2.46.61a7.46,7.46,0,0,1-.72,2.21,40.8,40.8,0,0,1,6-1,1.23,1.23,0,0,1,.67.13,2.39,2.39,0,0,1,.65,1.34,9.09,9.09,0,0,1,.25,2.12,3,3,0,0,1-.43,1.46,25.27,25.27,0,0,1-1.47,2.3,20.47,20.47,0,0,0-2,4,10,10,0,0,0-.84,3.24c0,1,.45,1.51,1.34,1.51s2.58-1.32,4.91-4V40.2c-1.28,1.87-2.34,3.33-3.17,4.4a20.56,20.56,0,0,1-2.31,2.56,3.06,3.06,0,0,1-1.9.94A1.88,1.88,0,0,1,136,46.87a7.94,7.94,0,0,1-.65-3.58,11.54,11.54,0,0,1,.51-3.15,26.07,26.07,0,0,1,1.49-3.84c.66-1.38,1.39-2.75,2.21-4.12l-1.46.4-1.71.43-1.38.35A23.53,23.53,0,0,1,130.8,40.59Z" transform="translate(-1.78)"/><path class="cls-1" d="M181.31,33.14c-2.12.1-3.66.15-4.65.15q-2.26,0-6.28-.15c-.56.86-1.25,1.86-2.06,3s-1.57,2.24-2.29,3.23-1.34,1.83-1.86,2.52-.95,1.28-1.28,1.74l-3.81,5.17A19.16,19.16,0,0,1,157.22,51a2.75,2.75,0,0,1-1.8,1c-.61,0-.92-.39-.92-1.18a10.35,10.35,0,0,1,1.32-3.95,24.86,24.86,0,0,1,3-4.72c1.11-1.37,2-2.06,2.72-2.06a1.76,1.76,0,0,1,.82.37l5-7.43a14.92,14.92,0,0,0-2.48-.24,6,6,0,0,1-2.06-.31c-.35-.17-.53-.59-.53-1.25q0-1.57,2.43-4.94a6.74,6.74,0,0,1,2.48-2.38,12.92,12.92,0,0,1,4.43-.55,8.64,8.64,0,0,0-2.73.86,1.79,1.79,0,0,0-.88,1.48h1.41c.43,0,1,0,1.69,0s1.21,0,1.54,0q4.33-5.87,7.86-10.2A106.38,106.38,0,0,1,188,7.16,72.87,72.87,0,0,1,196.32,0a6.73,6.73,0,0,1,.87,3.3,9.85,9.85,0,0,1-.68,3.29q-.66,1.88-2.84,7t-4.42,10.93h1.22l1,.06a12.69,12.69,0,0,1,1.84.07c.22.05.33.3.33.74a2.85,2.85,0,0,1-.41,1q-.41.75-1.44,2.49c-.68,1.16-1.35,2.34-2,3.53l-3.88.44Q182.86,41,182.86,42c0,1,.38,1.51,1.14,1.51.37,0,1.89-1.08,4.59-3.23l-.21,1.94q-2.17,2.28-3.37,3.57c-.8.87-1.49,1.59-2.08,2.17a8.84,8.84,0,0,1-1.61,1.28,2.91,2.91,0,0,1-1.47.42,2.26,2.26,0,0,1-1.71-1.12,5.18,5.18,0,0,1-.85-3.17,9.28,9.28,0,0,1,.45-2.39c.3-1,.62-2,1-3S179.92,36.76,181.31,33.14Zm-5-8.31,8.55-.22c1-2.37,1.81-4.28,2.44-5.75s1.31-3.06,2.05-4.78,1.39-3.18,1.93-4.37,1.13-2.56,1.78-4.07c-1.26,1.1-2.56,2.32-3.88,3.66s-2.8,3-4.46,4.85-3.12,3.65-4.4,5.28S177.71,22.85,176.32,24.83Z" transform="translate(-1.78)"/><path class="cls-1" d="M192.37,39v-.78q6-8.73,8.21-12.23.51-3.95,2.46-4a1.85,1.85,0,0,1,1,.39l.14.61a4.37,4.37,0,0,0-.1,1.09,14.34,14.34,0,0,0,.34,2.26c.22,1.11.4,2,.52,2.78a16.21,16.21,0,0,1,.18,2.54,12.07,12.07,0,0,1-.69,4.06,14.2,14.2,0,0,1-2,3.72,24.44,24.44,0,0,1-3.4,3.65,6,6,0,0,0,1.32.19,4,4,0,0,0,2-.66,13,13,0,0,0,2.25-1.76q1.14-1.11,2.67-2.88V40.2a39.49,39.49,0,0,1-5.3,6.09q-2.34,2.07-4,2.07-2.18,0-4-2.57a7.78,7.78,0,0,1-1.35-2.95A21.4,21.4,0,0,1,192.37,39ZM201,34.1l-.42-4.68q-1.43,2.23-6.13,8.63a3.53,3.53,0,0,1,1.9,1.13,18.58,18.58,0,0,1,1.44,2.73,6.2,6.2,0,0,0,2.41-2.46,8.92,8.92,0,0,0,.85-4.26c0-.21,0-.4,0-.57S201,34.27,201,34.1Z" transform="translate(-1.78)"/><path class="cls-1" d="M207.15,39v-.78q6-8.73,8.22-12.23c.34-2.63,1.15-4,2.45-4a1.85,1.85,0,0,1,1,.39l.14.61a5,5,0,0,0-.09,1.09,14,14,0,0,0,.33,2.26c.22,1.11.4,2,.52,2.78a16.14,16.14,0,0,1,.19,2.54,11.83,11.83,0,0,1-.7,4.06,14.2,14.2,0,0,1-2,3.72,24.44,24.44,0,0,1-3.4,3.65,6,6,0,0,0,1.32.19,4.06,4.06,0,0,0,2.05-.66,12.91,12.91,0,0,0,2.24-1.76q1.14-1.11,2.67-2.88V40.2a39.49,39.49,0,0,1-5.3,6.09q-2.34,2.07-4,2.07-2.18,0-4-2.57a7.78,7.78,0,0,1-1.35-2.95A21.4,21.4,0,0,1,207.15,39Zm8.63-4.92-.41-4.68q-1.44,2.23-6.13,8.63a3.53,3.53,0,0,1,1.89,1.13,18.58,18.58,0,0,1,1.44,2.73A6.13,6.13,0,0,0,215,39.45a8.92,8.92,0,0,0,.85-4.26c0-.21,0-.4,0-.57S215.8,34.27,215.78,34.1Z" transform="translate(-1.78)"/><path class="cls-1" d="M233.09,38.12v2.34a30.83,30.83,0,0,1-4.19,6c-1.3,1.36-2.4,2-3.31,2q-1.89,0-2.82-2.76a18.8,18.8,0,0,1-.93-6,14.2,14.2,0,0,1,.19-2.39,11.43,11.43,0,0,1,.44-1.88c.17-.49.48-1.26.95-2.31q3.29-7.09,6-7.09,1.41,0,1.41,1.5a9.45,9.45,0,0,1-.91,3.21,14.7,14.7,0,0,1-1.63,3.12q-2,2.7-2.63,3.76a4.69,4.69,0,0,0-.61,2.41,3,3,0,0,0,.62,1.92,2,2,0,0,0,1.62.77,3.86,3.86,0,0,0,2.4-1.11A32.63,32.63,0,0,0,233.09,38.12Zm-1.58-14.36a1.47,1.47,0,0,1-1.1-.61,2.31,2.31,0,0,1-.52-1.54,6.52,6.52,0,0,1,1-3.14q1-1.74,2-1.74a1.39,1.39,0,0,1,1.15.6A2.7,2.7,0,0,1,234.5,19a6.3,6.3,0,0,1-.95,3.05C232.92,23.21,232.24,23.76,231.51,23.76Z" transform="translate(-1.78)"/><path class="cls-1" d="M232.78,39v-.78q6-8.73,8.22-12.23c.34-2.63,1.15-4,2.45-4a1.85,1.85,0,0,1,1,.39l.14.61a5,5,0,0,0-.09,1.09,14,14,0,0,0,.33,2.26c.23,1.11.4,2,.52,2.78a16.14,16.14,0,0,1,.19,2.54,11.83,11.83,0,0,1-.7,4.06,14.2,14.2,0,0,1-2,3.72,24.44,24.44,0,0,1-3.4,3.65,6.08,6.08,0,0,0,1.32.19,4.06,4.06,0,0,0,2.05-.66,12.91,12.91,0,0,0,2.24-1.76q1.14-1.11,2.67-2.88V40.2a39.49,39.49,0,0,1-5.3,6.09q-2.32,2.07-4,2.07-2.18,0-4-2.57a7.78,7.78,0,0,1-1.35-2.95A21.4,21.4,0,0,1,232.78,39Zm8.63-4.92L241,29.42q-1.44,2.23-6.13,8.63a3.53,3.53,0,0,1,1.89,1.13,18.58,18.58,0,0,1,1.44,2.73,6.13,6.13,0,0,0,2.41-2.46,8.92,8.92,0,0,0,.85-4.26c0-.21,0-.4,0-.57S241.43,34.27,241.41,34.1Z" transform="translate(-1.78)"/><path class="cls-1" d="M255.78,21.45h1A19.29,19.29,0,0,1,259,17.13a2.88,2.88,0,0,1,2.27-1.26c.85,0,1.27.26,1.27.8a7.17,7.17,0,0,1-1,2.08A28.94,28.94,0,0,0,260,21.61l1.4.23,1,.16a55.78,55.78,0,0,1-3.3,7L258,28.85l-.89-.09-1.1-.12c-.83,1.87-1.53,3.53-2.09,5a32.55,32.55,0,0,0-1.3,4,14.49,14.49,0,0,0-.45,3.46c0,1.48.42,2.22,1.27,2.22a3.92,3.92,0,0,0,2.3-1.3q1.42-1.3,3.81-4V40.2q-6.24,9.42-9.23,9.41a1.89,1.89,0,0,1-1.68-1.12A5.86,5.86,0,0,1,248,45.6a13.4,13.4,0,0,1,.35-2.83q.36-1.64,1.29-4.94c-.22.25-.42.51-.62.75l-.53.68-.52.64c-.18.22-.37.45-.55.69V38.37a49.13,49.13,0,0,0,5.87-9.92l-.64-.05h-.72a6.15,6.15,0,0,0-2,.25l-.52.21a.86.86,0,0,1-.33.11c-.07,0-.1-.06-.1-.19a9,9,0,0,1,1-3.18,12.14,12.14,0,0,1,1.45-2.66A3.31,3.31,0,0,1,253,21.76,9.55,9.55,0,0,1,255.78,21.45Z" transform="translate(-1.78)"/><path class="cls-1" d="M262.21,32.37A30,30,0,0,1,269,25.79q3.32-2.16,5.11-2.16a1.16,1.16,0,0,1,.91.57,4.81,4.81,0,0,1,.66,1.3,3.93,3.93,0,0,1,.24,1.09,1.07,1.07,0,0,1-.32.85,6.16,6.16,0,0,1-1.14.66l.42,1.32q.25.79.39,1.29a3.53,3.53,0,0,1,.14.89,7.91,7.91,0,0,1-1.12,2.87c-.75,1.4-1.27,2.44-1.57,3.1a5.74,5.74,0,0,0-.46,2.44c0,1.58.53,2.38,1.58,2.38s2.77-1.4,5.06-4.21v2q-5.85,9-8.37,9a1.3,1.3,0,0,1-1.28-.82,5.81,5.81,0,0,1-.39-2.42,30.37,30.37,0,0,1,1.32-7.35q-3.37,5.19-5,7.4c-1.09,1.46-2,2.2-2.7,2.2-.34,0-.77-.41-1.28-1.22a13.63,13.63,0,0,1-1.35-3.17,13.84,13.84,0,0,1-.59-4,12.76,12.76,0,0,1,.21-2.52,7.27,7.27,0,0,1,.81-2.07A26.73,26.73,0,0,1,262.21,32.37Zm11.08-3.53a48.27,48.27,0,0,0-8.57,6.48,7.94,7.94,0,0,0-2.56,5.49,4.72,4.72,0,0,0,.26,1.69q.25.66.69.66a2.09,2.09,0,0,0,.9-.45,21.31,21.31,0,0,0,4.44-5.19Q270.48,34.33,273.29,28.84Z" transform="translate(-1.78)"/><path class="cls-1" d="M294.32,32.3q-4.08,6.3-4.07,8.77,0,1.38.81,1.38a3,3,0,0,0,1.74-1q1.08-1,3.37-3.48V40.2q-3.29,4.5-5,6.49c-1.18,1.33-2.13,2-2.87,2-1.27,0-1.9-1.16-1.9-3.47a9.13,9.13,0,0,1,.23-2,16.15,16.15,0,0,1,.64-2.07c.27-.72.68-1.75,1.23-3.08s1.2-2.86,1.93-4.55a16.36,16.36,0,0,0-3.31,3.69,33.12,33.12,0,0,0-2.2,3.3c-.6,1-1.25,2.19-1.93,3.46a26.36,26.36,0,0,1-1.51,2.57,1.26,1.26,0,0,1-1,.66c-.49,0-.94-.72-1.36-2.15a17.85,17.85,0,0,1-.63-5,10.41,10.41,0,0,1,.29-2.76,23,23,0,0,1,1.15-2.83,32.52,32.52,0,0,1,2.75-5q1.15-1.59,2.22-1.59a1.89,1.89,0,0,1,1.19.35,1.32,1.32,0,0,1,.45,1.1,1.85,1.85,0,0,1-.13.67,4.24,4.24,0,0,1-.32.64c-.11.19-.36.57-.73,1.13q-3.64,5.61-3.65,7.29c0,.62.15.93.44.93s.54-.42,1.07-1.24,1.22-1.9,2.06-3.24a46.83,46.83,0,0,1,3-4.19,35.72,35.72,0,0,1,3.92-4.21,3.39,3.39,0,0,1,2-1.19c.25,0,.49.47.73,1.42a11.48,11.48,0,0,1,.36,2.85A4.57,4.57,0,0,1,294.32,32.3Z" transform="translate(-1.78)"/><path class="cls-1" d="M304.15,21.45h1a19.29,19.29,0,0,1,2.22-4.32,2.88,2.88,0,0,1,2.27-1.26c.85,0,1.27.26,1.27.8a7.17,7.17,0,0,1-1,2.08,28.94,28.94,0,0,0-1.51,2.86l1.4.23,1,.16a54.39,54.39,0,0,1-3.3,7l-1.09-.11-.89-.09-1.1-.12c-.83,1.87-1.53,3.53-2.09,5a32.55,32.55,0,0,0-1.3,4,14.49,14.49,0,0,0-.45,3.46c0,1.48.42,2.22,1.27,2.22a3.92,3.92,0,0,0,2.3-1.3q1.42-1.3,3.81-4V40.2q-6.24,9.42-9.23,9.41A1.89,1.89,0,0,1,297,48.49a5.86,5.86,0,0,1-.63-2.89,13.4,13.4,0,0,1,.35-2.83q.36-1.64,1.29-4.94c-.22.25-.42.51-.62.75l-.53.68-.52.64c-.18.22-.37.45-.55.69V38.37a49.13,49.13,0,0,0,5.87-9.92L301,28.4h-.72a6.15,6.15,0,0,0-2,.25l-.52.21a.86.86,0,0,1-.33.11c-.07,0-.1-.06-.1-.19a9,9,0,0,1,.95-3.18,12.14,12.14,0,0,1,1.45-2.66,3.31,3.31,0,0,1,1.66-1.17A9.55,9.55,0,0,1,304.15,21.45Z" transform="translate(-1.78)"/><path class="cls-1" d="M316.79,54.69c.49,0,.25-.43.31-.52C316.31,54.41,316.83,54.8,316.79,54.69Z" transform="translate(-1.78)"/><polygon class="cls-1" points="307.21 57.03 307.32 56.84 306.22 57.46 307.21 57.03"/><path class="cls-1" d="M301.54,58.33c.83.58,2.67-.59,4-.57l.24.12.5-.67A30.61,30.61,0,0,1,301.54,58.33Z" transform="translate(-1.78)"/><path class="cls-1" d="M297.29,57.56c.29.23-.82.41.94-.09a.53.53,0,0,1-.18,0A7,7,0,0,1,297.29,57.56Z" transform="translate(-1.78)"/><path class="cls-1" d="M298.05,57.43c.78-.17-.56-.13,0,0Z" transform="translate(-1.78)"/><path class="cls-1" d="M294.46,58.29l1-.44c-.24-.12-1.17,0-.85-.16C293.56,58,293.81,58.14,294.46,58.29Z" transform="translate(-1.78)"/><path class="cls-1" d="M293.58,59l.52-.21C294,58.73,293.84,58.74,293.58,59Z" transform="translate(-1.78)"/><path class="cls-1" d="M295.19,58.35l-1.09.43c.17.09.23.31.5-.18C294.55,58.83,294.73,58.59,295.19,58.35Z" transform="translate(-1.78)"/><path class="cls-1" d="M295.85,58.33c.61,0,1.37,0,.39.43C298.19,58.29,297.8,57.85,295.85,58.33Z" transform="translate(-1.78)"/><path class="cls-1" d="M301.29,59.12l.82.07.62-.35C302.42,59,301.21,58.91,301.29,59.12Z" transform="translate(-1.78)"/><path class="cls-1" d="M288,59.23c0,.16.43.32.55.5l.73-.33C288.82,59.38,288.06,59.44,288,59.23Z" transform="translate(-1.78)"/><path class="cls-1" d="M288.51,59.73l-1.08.49C288.45,60,288.61,59.88,288.51,59.73Z" transform="translate(-1.78)"/><polygon class="cls-1" points="291.78 59.8 293.54 58.9 291.42 59.88 291.78 59.8"/><polygon class="cls-1" points="281.84 60.13 282.41 59.65 281.37 60.42 281.84 60.13"/><path class="cls-1" d="M280.75,60.82c.41-.39-.76-.34-.3-.62a7,7,0,0,0-1.93,1A4.77,4.77,0,0,1,280.75,60.82Z" transform="translate(-1.78)"/><path class="cls-1" d="M277.58,61.73a8.73,8.73,0,0,0,.94-.55A3.91,3.91,0,0,0,277.58,61.73Z" transform="translate(-1.78)"/><path class="cls-1" d="M285.47,60.55a1.28,1.28,0,0,0-1-.23l.54.32Z" transform="translate(-1.78)"/><path class="cls-1" d="M285,60.65h0l-1,.19Z" transform="translate(-1.78)"/><path class="cls-1" d="M285.59,60.53l-.12,0C285.53,60.58,285.55,60.59,285.59,60.53Z" transform="translate(-1.78)"/><path class="cls-1" d="M290.5,60c-.62.37-2,.91-.54,1C290.38,60.63,289.56,60.59,290.5,60Z" transform="translate(-1.78)"/><path class="cls-1" d="M286.25,60.93l1.23-.15c-.05-.11-.3-.23,0-.41Z" transform="translate(-1.78)"/><polygon class="cls-1" points="283.91 61.19 284.48 60.93 284.02 60.99 283.91 61.19"/><path class="cls-1" d="M279.73,61.64a6.39,6.39,0,0,1-1.68.63,20.63,20.63,0,0,0,2.11-.35C280.22,61.76,280.47,61.46,279.73,61.64Z" transform="translate(-1.78)"/><path class="cls-1" d="M282.32,61.2l-.11,0C282.29,61.26,282.35,61.26,282.32,61.2Z" transform="translate(-1.78)"/><polygon class="cls-1" points="269.96 63.76 270.08 63.81 270.09 63.73 269.96 63.76"/><path class="cls-1" d="M280.29,62a1.93,1.93,0,0,0,1.09-.4c-.38.13-.78.24-1.22.35C280.13,62,280.13,62,280.29,62Z" transform="translate(-1.78)"/><path class="cls-1" d="M275.86,62.33c.29,0,.61,0,.95,0C276.52,62.28,275.93,62.2,275.86,62.33Z" transform="translate(-1.78)"/><path class="cls-1" d="M282,61.17l.07,0C281.89,61.08,281.93,61.12,282,61.17Z" transform="translate(-1.78)"/><path class="cls-1" d="M282,61.17a3.79,3.79,0,0,0-.63.4,6,6,0,0,0,.83-.33A.68.68,0,0,1,282,61.17Z" transform="translate(-1.78)"/><path class="cls-1" d="M270.49,66.88c0-.41,1.26-1.09,2.52-1,1.08-.56,0-1.65-1.15-2.11,0,.17,0,.33-1.09.84.47.11,2.75-.14,1.84.45-1.52.57-1.32.17-2.13.15.76.32-1.82,1.2-1.3,1.82l1.31-.59C270.54,66.58,270.09,66.88,270.49,66.88Z" transform="translate(-1.78)"/><path class="cls-1" d="M274.13,63.3l.47-.17a6.23,6.23,0,0,1-1.81-.11c-.77.38-.9.57-.93.71l2.42-.53Z" transform="translate(-1.78)"/><path class="cls-1" d="M276.8,62.62c-.29.51-1.42,1-.59,1.25,1.42-.36.92-.58,1.73-1-2.29.63.62-.39-1.11-.24a9.57,9.57,0,0,1,1.22-.4c-.43,0-.84.07-1.24.08l.06,0h0c.11,0,.15.05,0,.05l0,0a.67.67,0,0,1-.07.18c-.69.07-.13-.08.07-.18,0,0,0,0,0-.07h0l-2.27.76A15.54,15.54,0,0,0,276.8,62.62Z" transform="translate(-1.78)"/><path class="cls-1" d="M288.91,62.18c-.08,0-.09,0-.1-.08S288.62,62.23,288.91,62.18Z" transform="translate(-1.78)"/><path class="cls-1" d="M287.9,62.12a1.36,1.36,0,0,1,.82-.36c.5,0,0,.21.09.34.31-.18,1.1-.54,0-.53l-.16.09c-1,0-2.28-.23-2.12-.33A3.21,3.21,0,0,0,287.9,62.12Z" transform="translate(-1.78)"/><path class="cls-1" d="M282.31,62.46l-1.89.63,1.07.15-.1-.21C282.51,62.88,282.21,62.66,282.31,62.46Z" transform="translate(-1.78)"/><polygon class="cls-1" points="269.69 63.6 269.84 63.1 268.88 63.99 269.69 63.6"/><polygon class="cls-1" points="267.2 64.27 267.2 63.86 266.6 64.26 267.2 64.27"/><path class="cls-1" d="M127.17,75.7l-.6.08A3.79,3.79,0,0,0,127.17,75.7Z" transform="translate(-1.78)"/><path class="cls-1" d="M131.46,75.81l.11-.19C131.37,75.72,131.29,75.8,131.46,75.81Z" transform="translate(-1.78)"/><path class="cls-1" d="M208.71,67.68c-.72-.6-1.49-1.44-1.52-1l.13.5A4,4,0,0,1,208.71,67.68Z" transform="translate(-1.78)"/><path class="cls-1" d="M165.26,67.66l.26.1.51-.49Z" transform="translate(-1.78)"/><path class="cls-1" d="M165,69.52l-1.12-.09A5.21,5.21,0,0,0,165,69.52Z" transform="translate(-1.78)"/><path class="cls-1" d="M103.85,72.06l-.81.19C104.09,72.6,103.7,72.23,103.85,72.06Z" transform="translate(-1.78)"/><path class="cls-1" d="M243.69,70.61a8.64,8.64,0,0,0-1.78,0C242.78,70.73,243.53,71,243.69,70.61Z" transform="translate(-1.78)"/><path class="cls-1" d="M129,71.14c-.35.07-.5.16-.49.25C128.83,71.33,129,71.25,129,71.14Z" transform="translate(-1.78)"/><path class="cls-1" d="M239.88,70.89c.13,0,.26,0,.39.06a11,11,0,0,1,1.64-.33A3.15,3.15,0,0,0,239.88,70.89Z" transform="translate(-1.78)"/><path class="cls-1" d="M25.27,77.73l-.19-.09S25.14,77.72,25.27,77.73Z" transform="translate(-1.78)"/><path class="cls-1" d="M6.38,62.15c.18.15.44.42.7.67A4.62,4.62,0,0,0,6.38,62.15Z" transform="translate(-1.78)"/><path class="cls-1" d="M258.91,66.68c.52-.16.07-.06,0,0Z" transform="translate(-1.78)"/><path class="cls-1" d="M261.91,67.67a.3.3,0,0,0-.16.26A.36.36,0,0,1,261.91,67.67Z" transform="translate(-1.78)"/><path class="cls-1" d="M234.81,74.07h0C234.93,74.15,234.91,74.13,234.81,74.07Z" transform="translate(-1.78)"/><path class="cls-1" d="M259.75,66.67a4.63,4.63,0,0,0-.71,0A7,7,0,0,0,259.75,66.67Z" transform="translate(-1.78)"/><path class="cls-1" d="M259.59,66.5l.47-.09C260.11,66.33,260,66.3,259.59,66.5Z" transform="translate(-1.78)"/><path class="cls-1" d="M258.18,66.9a7.79,7.79,0,0,1,.86-.18c-.11,0-.16,0-.13,0Z" transform="translate(-1.78)"/><path class="cls-1" d="M68.2,64.24h-.12C67.62,64.57,67.84,64.47,68.2,64.24Z" transform="translate(-1.78)"/><path class="cls-1" d="M193.91,69.13H194l-.07,0Z" transform="translate(-1.78)"/><path class="cls-1" d="M192,69.25a2.1,2.1,0,0,1,1.91-.15l-.5-1.32Z" transform="translate(-1.78)"/><path class="cls-1" d="M116.89,74.87l1.34.57c-1.78.41-3,0-1.75.74.4-1.33,5.54.63,5.86-.81l.91.35c-.27,0-.32,0-.58,0,1.76.77,1.41-.89,3.7-.54.8.15,1.36.39.8.51.6-.08,1.21-.2,1.81-.29s.39.27-.13.23l2.74-.06,0,0a18.44,18.44,0,0,1,1.7-.72c.7.18-.35.16-.17.32l1.51-.37c.63.33-.62.71-1.67.69.72.66,1,.56,1.56.39a5.1,5.1,0,0,1,2.8-.12l-1.44.27c1,.71,2.11.34,3.81.69-.43-.21-3.4-1-1.76-1.42a3.44,3.44,0,0,0,2-.28c.05.48.92.25,2,.09v.64c1.17-.33,1-.64,1.67-1a2.07,2.07,0,0,1,2.06.63c2.12-.3-1.59-.49.86-1.1a12.52,12.52,0,0,0,4.83-1.55c1.21-.1-.11.43.36.5l.9-.77c.25,0,.21.12.19.21.81-.43-.09-.64,1.22-1.17.19-.78,3,.25,4.48-.92.46.07-.1.43.08.64a23.38,23.38,0,0,0,3.6-1.91l1.68.12c-1.26-.25.14-1.11,1.43-1.77a7.63,7.63,0,0,0-1.13-.36c.7-.26,1.41-.44,2.13-.66.27.07.08.31-.23.63l.37-.21c.81.13.45.55-.05,1l-.83-.28c-.48.45-.9.95-.73,1.31a2.16,2.16,0,0,1,.67-.28c-.12.13-.19.23-.12.29s.28-.12.61-.33l.58.64.08-.29c.95,0,1.88,0,2.83.1.95-.45,1.85-1,2.91-1.47a15.73,15.73,0,0,1,3.92-1.09c-.79.57-.14.87-.16,1.49-.9-.6-2.47.39-4.12.38.86,0,.7.32.48.42l2.92-.75c0,.51.64.35,1.41.52-.61-1,2.19-.7,3.4-1,.08.33-.21.68-1.68.62,1.63.74,2.09-1.23,3.69-.57-.36,0-.55-.06-.69.12.84-.3,2.9,0,2.4.27h-.35c1.19.11,3,.08,4.56.09s2.89-.18,3.1-.59a3.9,3.9,0,0,1-.55,1.16c1.49-.89,3-1.61,4.55-2.42-.46.68.74,2.57-1.26,2.76a6.25,6.25,0,0,0,2.43.27c-.36-.16-.8-1.2-.27-1.18a13.23,13.23,0,0,0,2.56,1.56c-.54-.24.3-1.3,1.2-1.07-.18.14-.15,1.13-.49,1.17l2.44-.62c-.6.08-.3.91.11,1.32-.17-.29,1.88.5,2.49.54l-.86-.49a3.93,3.93,0,0,0,2.65,0,3.84,3.84,0,0,1,2.68,0,.88.88,0,0,0,0,1.67c.74-.38,3.42-1.78,5.69-1.57l.32.44c.59.06,1.18.08,1.76.09a24.66,24.66,0,0,1-6.56,1.57c.85.56.14.46,1.55.89.41.45-.91.19-1.33.08,1.07.42,2.15.83,3.27,1.23,0-.66,2.81.07,2.81-.52-1.3-.07-2.58-.21-3.87-.36.07-.69,2.64-1.16,5-.49.55.41-.72,1.06-.73,1.28a7.15,7.15,0,0,1,2.62.26l-1.12.15a4,4,0,0,0,1.9.1,3,3,0,0,1,2.07.29,4.78,4.78,0,0,1,1.05.54c.35.18.66.31.73.11-.89-.82-.8-3.21-.16-3.73a33,33,0,0,1,3.44,1.31c.45.31.1.66-.28,1s-.78.64-.39.93c0-.17.57-.39.78-.47.6.16-.26.57,1,.49.22-.68,2.64.08.62-.57,1.26-.19,1.34.18,2.82.07-.48-.42,1.27-1.56,2.49-1.81-.06.18.23.39.37.49,2.55-.12,3.95.06,6.33-.23.24.15,1.41.16,1,.53a3.55,3.55,0,0,1,1.34-.58c1.51.36-1.63.34-.43.88,0-.41,1.82-.83,2.8-1.28-.22-.28-.81-.19-1.49,0a17.58,17.58,0,0,0-1.93.69c-.13-.85,1.55-2,3.87-2.81,1.87-.59.94.36,1.25.18,3.64-.64,2.72-2.12,5.83-2.25,1.31.22.32,1,.68,1.33-1.51.6-2.48.26-3.53.54l1.36-.07a4.68,4.68,0,0,1-2.07.66c1.11.25,6.11-1.39,9-1.72.45-.3,1.25-.7.79-.81l-.85.31c-.92-.21,1.49-1,.33-.92a10.24,10.24,0,0,1,4-1.62l.47.52c-.08-.17-1.18-.08-1.59.23.62-.45,2.75.14,3.3-.84L264,66.71c1.11-.6,2.41-1.61,3.94-1.8-.82-.41-.33.16-1.55-.26,1.12.61-3.78.94-2.09,1.45-1.28-.51-1.95.15-3.52-.16.09.19.59.24-.67.47a1.27,1.27,0,0,1-.22.25h0s0,0,0,0a1.65,1.65,0,0,1,.71.13c-.49.61-2.46,1.12-3.05,1.52-.76.1.24-.3-.21-.4l-.9.6c-.21-.41-2.12-.21-.47-.92l-1.55.39a7.25,7.25,0,0,0-2.95.57c-.74.08-1.71.92-1.16.43-.78.29-1.56.55-2.34.81l-.05-.1c-2.36.47-4.76,1.7-7.61,1.25a9.93,9.93,0,0,1-3,.44L237,71a10.59,10.59,0,0,1-2,.07c-.7,0-1.34,0-1.55.18-.58-.5-1.84-.47-3.17-.41a25.42,25.42,0,0,1-3.63.07l-.09.5c-1.22-.13-2.42,0-4,0l0,.45c-1.38.22-3.33-.79-5.36-1.27.18-.13.68,0,1,.24-2.16-1.54-5.33-.73-7.39-2.18a2.54,2.54,0,0,1-1.38-.45l.14,0-.23-.08c-.23-.15-.45-.33-.72-.48a3.5,3.5,0,0,0,.6.44,12.72,12.72,0,0,0-1.84-.38l-.15-.54-.15,0c-.61-.37-.59.06-.35.52a3.37,3.37,0,0,0-1,0c-.33-.9-1.83-.21-2.36-1.21-.55.28-3.51-.46-4,.32,0-.11-.19-.19.18-.14a4.91,4.91,0,0,0-2.21-.31l-.24-.66c-.59.18-1.19.36-1.78.58-1-.48-1.36-.74-.29-1.1-2.53.47-2,0-4.15.59l.13-.39c-.75,0-2,.42-2.39.06-1.62-.91-8.17-.37-12.45-.92.88,1.12-2-.42-2.13.49-.27-.26-.87-.38-.19-.66-2.17.36-3.33-.19-4.77.7-.28-.25.43-.45.19-.59-.17.08-.67.3-.92.16s.3-.26.63-.41c-2.25.26-2.36,1.2-2.41,2a2.41,2.41,0,0,0-2.45.55c-.42-.19-1.12-.34.23-.68-.38.05-1.57.17-2.67.36s-2.06.5-2,.81a2.41,2.41,0,0,0-1.26.31,32.88,32.88,0,0,0-3.49.84l.48,0c-.45.91-1.32.53-2.61,1v-.09c-3.14.26-1.24.62-4.35.75l.28.42c0,1.09-2.77,0-4.4.73l.68.16c-.9.51-2.88-.88-3.82-.93-.22-.06.3-.18.58-.28-2.53-.3-.23.66-2.06,1-.37-.3.34-.9-.89-.83-.62-.23-3.52,1.41-5.27.75.38.25.77.5-.1.72-1.34.17-3.6-1-4.82-.17-.17-.07-.23-.14-.24-.21-1,.24-3.33.16-4,.59-.41-.88-2-.72-3.49-.69s-2.85.09-2.73-.67l-1.56-.16-1.54-.25.11-.14a5.76,5.76,0,0,0-3.48,0c-.42-.22-.06-.27,0-.34a15.37,15.37,0,0,0-2.87-.9,25.06,25.06,0,0,0-2.74-.14l-.09-.55c-.75.09-3.72-2.07-6.58-2.69a.44.44,0,0,1,.38-.08A18.69,18.69,0,0,1,95.12,63c-1.53-.85-2.87-1.49-3.81-.85l-2.24-.37c2.64,1.14-.66.58.34,1.28-1-.31-2.59-1.38-1.23-1.09l.18.15c.39-.37-.44-.71-1.35-1s-1.92-.51-1.81-.83a37.66,37.66,0,0,0-8.63-.85c-1.41.09-2.81.22-4.2.37s-2.7.54-4,.84l.8.57a17.53,17.53,0,0,0-1.8.45c-.52,0-.8-.35.49-.72-.79-.18-2,1-2,1.16-2.57.52.7-1.13-.06-.89-.34.13-.69.24-1,.38H65A4.8,4.8,0,0,1,62.79,63c-1,.21-.65-.25-1-.13,0-.05-.15,0-.57.21L59,63.87l1.08.18c-.85.65-2,.82-.78,1-1.86-.33-8,3.22-8.92,3.34a12.7,12.7,0,0,1-4,2.17c.44-.06.94.44-.46,1,0-1.44-2.72.5-4.15,0,.59.13-.36.5-1.24.88s-1.7.66-.78.9c-1.2.21-.22-.46-1.17-.53a7.42,7.42,0,0,1-2.12.68,13.86,13.86,0,0,1-2.36.26c-.81,0-1.64.08-2.47,0s-1.68,0-2.53-.05c-.06.17.5.5-.26.69l-1.71-1.06c-.67,0-.78.91-1.89.07.14.18.36.45-.11.41a54.57,54.57,0,0,1-9.64-3.91,21.4,21.4,0,0,1-7.9-7c.45.9,0,.49-.56,0,.28.38-.32.3-.42.53-.55-.86-1.08-1.72-1.58-2.6-.87.06-2.12-2.37-2.8-2.21l.7.66c-1.41-.5-.12,2.43-.94,2.92.8.27,1.21,1.19,1.78,2.16a4.52,4.52,0,0,0,2.6,2.37c.27.5-.54-.08-.48.27a4.09,4.09,0,0,1,2.28,1.57l-.18,0,3.77,3a31,31,0,0,0,4.33,3l-.09-.57a7.28,7.28,0,0,1,1.31,1c.65-.11,0-.38-.57-.68s-1.2-.66-.59-.79c.34.72,1.86,1.45,3.39,2l1.12.43c.36.13.71.26,1,.39a2.4,2.4,0,0,1,1.2.86c1.47.31-.29-.63,1.16-.31l.32.37.45-.3c.93.27,1.36.72,1.36,1-.23,0-.68,0-.94-.08a5.51,5.51,0,0,0,2.33.4,14.66,14.66,0,0,1,1.73.07c-.49-.09-1-.21-1.44-.31.52,0,1,.06,1.58,0l1.64,0a25.29,25.29,0,0,0,3.36-.23A20.41,20.41,0,0,0,40.62,76l-.34-.14A10.68,10.68,0,0,1,42.79,75a8.56,8.56,0,0,0,2.7-.89l-.08.09a7.81,7.81,0,0,1,2-1.18c-.62.56,1.57-.13.74.55,2.66-1.65,1.25-.94,2.76-2.53l.58.14a4.08,4.08,0,0,1,1.82-1.52c-1,.82,1.14.09,0,1.07,3.27-.63,4-2.77,5.84-2.27.93-1.54-2.77.6-2.11.07-.77,0,.8-1.2,1.77-1.51s2.12.51,4.47-.47c-.24.09-.22.17-.46.26,1-.11,1.62-1,2.86-1,.4-.83,1.44-.43,1.37-1.25-.73.27-1.45.59-2.15.92,1.16-.66,2.08-1.91,4.33-2.1a5.64,5.64,0,0,1-1.09.82,1.9,1.9,0,0,0,.91-.24,2,2,0,0,1,.93-.17c0,.75-2.67.93-3.82,1.94.74.11,2.36-1.34,1.94-.31.66-1.39,2.39-.52,3.84-1.71v.48a4.55,4.55,0,0,1,1.21-.58l-.74.81a2.21,2.21,0,0,1,.94-.37,5.35,5.35,0,0,1,1,0A4.29,4.29,0,0,0,76.27,64c-2.63.37-.66-.49-1.83-.68,3.27-1.09,2,1,5.58.65-.48,0-1.82-.25-1.06-.5a4.37,4.37,0,0,1,2,.62c2.36.11-.32-.52.72-.72a.91.91,0,0,0,1,.17A4,4,0,0,1,84,63.34l-.09.47c1.32.43,1.56.21,1.77,0s.39-.38,1.57.18L86,64.34l1.31.22-.42.45a5.59,5.59,0,0,1,3.17,1c-.19-.43.49-.78,1.7-.27.71.61-.63.23,1.1.89a1.34,1.34,0,0,1-1.64-.44c-.13.11-.49.12-.63.23a9.82,9.82,0,0,0,2.79,1.27,3.54,3.54,0,0,1-.62-.39l2.76.47c.32.34,0,.33-.42.33.53.17,1,.13,1.73.41-.34.27-.47.67-1.6.37l2.59.64c.1.22,1.07,1,.7,1a7.89,7.89,0,0,0,2.54.72,11.56,11.56,0,0,1,2.88.82,1.71,1.71,0,0,1,.76,0c1.71.69,3.2,1.57,5.47,1.6.34.33.69.69,1,1,1.73.18-1.46-1.19,1.4-.89,2,.17.63.73,1.29,1.06a13.13,13.13,0,0,1,2.06-.21,5.35,5.35,0,0,1,2.58.43A12.42,12.42,0,0,1,116.89,74.87Zm21,.48c-.4.13-1.2.5-1.51.24C136.79,75,137.16,75.24,137.87,75.35Zm30.48-7.18a1.64,1.64,0,0,1-1.25.07A3.37,3.37,0,0,1,168.35,68.17Zm84.92.39,0,0C252.33,68.63,252.65,68.63,253.27,68.56Zm1.82-.25c.16-.11.13-.17,0-.21a1.75,1.75,0,0,1-.95.34C254.33,68.53,254.58,68.55,255.09,68.31ZM61.63,63.08l.39,0C61.3,63.5,61.47,63.3,61.63,63.08Z" transform="translate(-1.78)"/><path class="cls-1" d="M165,69.3a.46.46,0,0,1-.21-.23C164.65,69.18,164.67,69.27,165,69.3Z" transform="translate(-1.78)"/><path class="cls-1" d="M104,72l-.06,0a.22.22,0,0,0-.09.07Z" transform="translate(-1.78)"/><path class="cls-1" d="M227.42,76.13a1.84,1.84,0,0,1-.74-.26C226.65,76,226.83,76.1,227.42,76.13Z" transform="translate(-1.78)"/><path class="cls-1" d="M264.31,65l-1.11.42a2.67,2.67,0,0,1,1.07-.12C264.22,65.24,264,65.14,264.31,65Z" transform="translate(-1.78)"/><path class="cls-1" d="M275,65.46c.15-.1.35-.09.5-.19l-.1-.21C274.68,65.25,274.23,65.54,275,65.46Z" transform="translate(-1.78)"/><path class="cls-1" d="M265.77,66.32c.19.36.88.05,1.66-.23l-.14,0C267.39,65.52,266.58,65.92,265.77,66.32Z" transform="translate(-1.78)"/><path class="cls-1" d="M267.61,66a5.37,5.37,0,0,1,.74-.19C268.39,65.59,268,65.87,267.61,66Z" transform="translate(-1.78)"/><path class="cls-1" d="M257.27,67.46c.4,0,.1-.56.36-.46C257.92,66.39,255.27,68.27,257.27,67.46Z" transform="translate(-1.78)"/><polygon class="cls-1" points="264.98 67.44 264.56 67.03 264.22 67.54 264.98 67.44"/><path class="cls-1" d="M260.35,68.74l1.31-.21c0-.07.11-.16.3-.25C261.17,68.47,260.28,68.6,260.35,68.74Z" transform="translate(-1.78)"/><path class="cls-1" d="M262,68.28a3.65,3.65,0,0,0,1-.35A6.82,6.82,0,0,0,262,68.28Z" transform="translate(-1.78)"/><polygon class="cls-1" points="263.27 68.04 262.86 68.04 261.95 68.24 263.27 68.04"/><path class="cls-1" d="M246.59,72l-1.39.41c-.11.2.29.23.81.06C246.32,72.3,246.83,72.14,246.59,72Z" transform="translate(-1.78)"/><path class="cls-1" d="M251.14,72.42a1.3,1.3,0,0,1-.71-.22l.1.61Z" transform="translate(-1.78)"/><path class="cls-1" d="M247,73.47c-.11.2-2,.88-.18.5C247,73.78,248.38,73.35,247,73.47Z" transform="translate(-1.78)"/><polygon class="cls-1" points="223.46 74.32 223.83 74.33 223.84 73.31 223.46 74.32"/><path class="cls-1" d="M205.94,72.27c1.51.71.56-.5,1.91.24.45-.11-1.11-.61-.66-.68C206.15,71.78,205.69,71.49,205.94,72.27Z" transform="translate(-1.78)"/><path class="cls-1" d="M207.19,71.83a4.86,4.86,0,0,0,.54,0A1.79,1.79,0,0,0,207.19,71.83Z" transform="translate(-1.78)"/><polygon class="cls-1" points="2.39 58.93 1.88 57.98 2.05 58.72 2.39 58.93"/><path class="cls-1" d="M2.29,57.83l.35-.6-.86-.13C2,57.27,2.29,57.6,2.29,57.83Z" transform="translate(-1.78)"/><path class="cls-1" d="M141.16,76.34l.07-.17c-.2-.14-.47-.12-1-.08Z" transform="translate(-1.78)"/><polygon class="cls-1" points="123.95 76.25 124.21 76.28 123.75 75.66 123.95 76.25"/><path class="cls-1" d="M112.75,75.4c.52.13,1.17.12,1.69.25C113.27,75.53,112.76,74.66,112.75,75.4Z" transform="translate(-1.78)"/><path class="cls-1" d="M314.46,41.27l-3.79,15.45L323.9,52.3l25.52-29.82-9.44-11Zm26.81-23.08a1.88,1.88,0,0,1,0,2.37L321.32,43.87a1.3,1.3,0,0,1-2,0,1.87,1.87,0,0,1,0-2.38l19.95-23.3A1.29,1.29,0,0,1,341.27,18.19Zm16.91-6-6.24,7.29-9.42-11,6.25-7.29Z" transform="translate(-1.78)"/></g></g></svg>